<svg xmlns="http://www.w3.org/2000/svg" version="1.1" xmlns:xlink="http://www.w3.org/1999/xlink" xmlns:svgjs="http://svgjs.dev/svgjs" width="1440" height="560" preserveAspectRatio="none" viewBox="0 0 1440 560">
    <g mask="url(&quot;#SvgjsMask1081&quot;)" fill="none">
        <rect width="1440" height="560" x="0" y="0" fill="rgba(245, 250, 255, 1)"></rect>
        <path d="M0,336.238C63.677,329.081,124.358,311.94,179.557,279.396C236.464,245.845,286.968,203.161,321.369,146.764C358.805,85.391,397.876,15.307,383.626,-55.157C369.494,-125.036,299.292,-165.343,248.196,-215.063C201.567,-260.437,159.735,-313.162,97.848,-333.239C35.102,-353.594,-30.94,-338.014,-95.928,-326.701C-168.794,-314.016,-263.935,-325.56,-303.872,-263.307C-345.095,-199.049,-279.415,-116.56,-279.713,-40.217C-279.954,21.547,-317.488,78.913,-305.443,139.491C-291.648,208.871,-266.984,284.594,-207.515,322.9C-148.039,361.211,-70.304,344.14,0,336.238" fill="#dceeff"></path>
        <path d="M1440 938.825C1512.46 940.29 1581.683 914.438 1643.964 877.374 1707.8690000000001 839.3430000000001 1757.771 785.579 1800.1689999999999 724.484 1850.103 652.53 1933.959 576.83 1911.233 492.247 1887.873 405.307 1761.534 399.954 1696.3029999999999 337.91200000000003 1640.166 284.52 1626.621 193.447 1558.423 156.68900000000002 1484.951 117.08800000000002 1389.95 96.69099999999997 1314.34 132.04000000000002 1239.442 167.05599999999998 1224.44 264.806 1179.174 333.993 1141.039 392.28 1079.584 437.81100000000004 1069.22 506.69 1058.834 575.719 1093.4859999999999 641.515 1123.414 704.58 1152.949 766.817 1185.8890000000001 828.258 1241.268 869.233 1298.857 911.844 1368.376 937.377 1440 938.825" fill="#ffffff"></path>
    </g>
    <defs>
        <mask id="SvgjsMask1081">
            <rect width="1440" height="560" fill="#ffffff"></rect>
        </mask>
    </defs>
</svg>